<svg viewBox="0 0 512 512" xmlns="http://www.w3.org/2000/svg" fill="white"><path d="M484.66 42.55a11.91 11.91 0 0 0-10.93-7.32h-89.11a11.85 11.85 0 0 0 0 23.7h60.5L308.55 195.51l-75.33-75.33a11.85 11.85 0 0 0-16.76 0L29.89 306.75a11.85 11.85 0 0 0 16.76 16.76l178.19-178.19 75.33 75.32a11.85 11.85 0 0 0 16.76 0l145-144.95v60.5a11.85 11.85 0 1 0 23.7 0V47.08a11.87 11.87 0 0 0-.97-4.53ZM292.21 321.35v155.42h50.78V303.25l-34.44 34.44-16.34-16.34zM358.79 476.77h50.76V236.68l-50.76 50.76v189.33zM159.06 476.77h50.76V269l-50.76 50.76v157.01zM425.35 476.77h48.38V172.5l-48.38 48.38ZM38.28 476.77h38.4v-74.62l-38.4 38.4v36.22zM92.48 476.77h50.78V335.56l-50.78 50.79v90.42z"/><path d="M225.63 476.77h50.78V305.55l-50.78-50.79v222.01z"/></svg>